<svg xmlns="http://www.w3.org/2000/svg" viewBox="0 0 182.49 186"><defs><style>.cls-1{fill:#02bce7;}.cls-2{fill:#fff;}.cls-3{fill:#2361ae;}</style></defs><title>bosh</title><g id="Layer_2" data-name="Layer 2"><g id="Layer_1-2" data-name="Layer 1"><path id="Fill-10" class="cls-1" d="M166.42,91.23c-3.6,0-7.21,0-10.81,0-3.89,0-4.63-.84-5-4.77C147.9,61.75,135,44.32,111.9,35.51,75.57,21.68,36.8,45.86,32,84.7c-.46,3.66-1.77,4.22-4.88,2C20.29,81.81,13.57,76.76,6.64,72,3.58,69.93,2.88,67.6,4,64.23,15.32,31.33,37.62,9.9,71.58,2.28,122.39-9.12,170.9,23.35,181,74.54a107.72,107.72,0,0,1,1.43,11.34c.37,4.23-.69,5.31-4.88,5.36-3.71,0-7.42,0-11.13,0"/><path id="Fill-12" class="cls-2" d="M16,91.29c3.72,0,7.42.11,11.13,0,3.22-.13,4.46,1.39,4.68,4.6,1.7,24.92,17.8,46.26,40.74,54.15,35.7,12.29,73.92-13.2,77.75-51.86.38-3.89,1.7-4.55,4.78-2.26q10.12,7.5,20.15,15.07c4.19,3.14,4.45,3.78,2.89,8.76-7.23,23-20.68,41-40.8,53.12-52.7,31.88-118.92,3.25-134.54-58A95.38,95.38,0,0,1,0,95.79c-.15-3.13,1.05-4.62,4.19-4.53,3.93.11,7.85,0,11.78,0"/><path id="Fill-14" class="cls-3" d="M91.29,49.13c18.94,1,33.68,9.47,41.49,27.18,7.67,17.39,4.36,33.53-8.28,47.9-2.2,2.5-4.2,2.83-7,.8-5.83-4.26-11.82-8.28-17.74-12.41-2.88-2-2.88-2.58,0-4.42,7-4.52,9.85-12,7.46-19.33A17.3,17.3,0,0,0,90,77.23,16.88,16.88,0,0,0,74,90.72c-.65,3-1.73,2.77-3.83,1.27-6-4.25-12-8.38-18-12.58-3.53-2.45-3.76-3.19-1.65-6.79C59.37,57.51,72.91,50,91.29,49.13"/></g></g></svg>