<svg xmlns="http://www.w3.org/2000/svg" xmlns:xlink="http://www.w3.org/1999/xlink" viewBox="0 0 164 245.51"><defs><style>.cls-1{fill:#fff;}.cls-2{fill:url(#linear-gradient);}</style><linearGradient id="linear-gradient" x1="-662.65" y1="479.74" x2="-660.78" y2="479.74" gradientTransform="translate(49959.71 94695.77) rotate(98.13) scale(130.81)" gradientUnits="userSpaceOnUse"><stop offset="0" stop-color="#60baeb"/><stop offset="0.04" stop-color="#60baeb"/><stop offset="0.13" stop-color="#4fb4e9"/><stop offset="0.82" stop-color="#4054ad"/><stop offset="1" stop-color="#4054ad"/></linearGradient></defs><title>cf</title><g id="Layer_2" data-name="Layer 2"><g id="Layer_1-2" data-name="Layer 1"><g id="g4191"><g id="g4197"><path id="path4199" class="cls-1" d="M56.87,146.1S61.15,129.88,42.55,109l-.62-.65A51.5,51.5,0,0,1,81.4,23.6h1.2a51.5,51.5,0,0,1,39.47,84.71c-.09.11-.3.33-.62.64a49.3,49.3,0,0,0-14.33,37.15,75.18,75.18,0,0,0,50.69-70.53C158,35.82,125.94,1.94,86.29,0c-.49,0-1,0-1.47,0L82,0,79.19,0c-.49,0-1,0-1.47,0C38.05,1.94,6,35.82,6.18,75.57A75.19,75.19,0,0,0,56.87,146.1"/></g><g id="g4201"><path id="path4203" class="cls-1" d="M154.27,205.92a23.23,23.23,0,0,1,4.51-1.31A28.62,28.62,0,0,1,164,204s-.08-.59-.2-1.46a13.73,13.73,0,0,0-.85-3.14l-.58-1.63c-.23-.52-.52-1-.74-1.4L160.9,195a46.17,46.17,0,0,1-5.38-1.22,42,42,0,0,1-4.86-1.67c-2.75-1.21-5.34-2.57-6.71-4.08a4.92,4.92,0,0,1-1.9-4.19,3.59,3.59,0,0,1,.89-1.84,5.74,5.74,0,0,1,2-1.52l-1.63-.92c-.49-.26-1-.58-1.66-.9l-2.05-1c-1.37-.65-2.73-1.3-3.88-1.74l-1.82-.74a36.08,36.08,0,0,1-4.23.3c-1.51,0-3.06,0-4.56-.13a44.37,44.37,0,0,1-8.56-1.43,21.23,21.23,0,0,1-3.49-1.21,16,16,0,0,1-2.61-1.38c-1.37-1-2.3-2-2.29-3L106,168c-1.28-.2-4-.57-5.75-.8,0,.29-.22.57-.28,1.05l-.44,2.12a8.34,8.34,0,0,0,5.73,9.77c10.22,3,18,7.88,20.19,13.89C130,206.19,111,218.08,82.2,218.08S34.42,206.19,38.93,194c2.18-5.87,9.6-10.67,19.46-13.67a8.83,8.83,0,0,0,6-10.28l-.61-2.89-3.85.47c-1.71.19-3.34.49-4.6.69l-2.09.35c.08,1-.62,2.11-2,3.06a17,17,0,0,1-2.44,1.44,29.49,29.49,0,0,1-3.37,1.26,33.16,33.16,0,0,1-4.11.95,40.46,40.46,0,0,1-4.43.6A44.92,44.92,0,0,1,28,176l-.51.2c-.3.14-.8.31-1.29.56l-3.79,1.81c-1.37.68-2.59,1.42-3.57,2l-1.19.66-.41.27c1.93.89,3,2.1,3.21,3.39.48,1.36-.18,2.77-1.43,4.3a18.63,18.63,0,0,1-2.7,2.23,24.34,24.34,0,0,1-3.87,2.06,42,42,0,0,1-10.23,3.17,6.42,6.42,0,0,0-.59,1.37c-.3.83-.68,2-1.08,3.1-.17,1.14-.33,2.3-.45,3.2A5.06,5.06,0,0,0,0,205.74a28.86,28.86,0,0,1,10.18,1.78,12.56,12.56,0,0,1,6.38,4.41,7,7,0,0,1,.58,6.54c-.71,2.37-2.64,5-5.8,7.4l.48.42,1.46,1c1.25.86,2.83,2.08,4.68,3.19l5.45,3c.75.42,1.51.68,2,.91l.78.33a48.49,48.49,0,0,1,14-3.39,41.16,41.16,0,0,1,7-.17A38,38,0,0,1,54,232a40.87,40.87,0,0,1,6.1,1.93,35.13,35.13,0,0,1,5.11,2.89,16.89,16.89,0,0,1,6.61,8.36l4,.16c2.44.06,5.69.28,8.93.12s6.49-.16,8.9-.32l4-.38a12.3,12.3,0,0,1,2.08-4.65,15,15,0,0,1,1.69-2,20.49,20.49,0,0,1,2-1.87,20.7,20.7,0,0,1,4.84-3,28.09,28.09,0,0,1,5.85-2.1,52,52,0,0,1,6.59-1,59.19,59.19,0,0,1,6.94,0,49.21,49.21,0,0,1,14.19,3l2.46-1.37a43.53,43.53,0,0,0,5-3.08c1.59-1.18,3.26-2.29,4.27-3.22l1.63-1.54a18.83,18.83,0,0,1-6.44-7.15,7.86,7.86,0,0,1-.76-3.34,4.8,4.8,0,0,1,.76-3.06c.86-1.93,3.07-3.37,5.58-4.5"/></g></g><g id="g4205"><g id="g4207"><g id="g4213"><g id="g4215"><path id="path4229" class="cls-2" d="M43.78,75.31c-.08,9.47,4.5,18,11.91,24.07h0c9.17,7.47,16.69,22.58,17.13,39.07h0c.48,18.31-.77,39.5-1.54,50.29h0c-9.8,1.39-16.69,4.67-16.69,8.49h0c0,5.08,12.2,10.95,27.25,10.95h0c15.05,0,27.25-5.87,27.25-10.95h0c0-3.82-6.88-7.1-16.7-8.49h0c-.77-10.78-2-32-1.52-50.29h0C91.33,122,98.83,106.85,108,99.38h0c7.42-6,12-14.6,11.91-24.07h0c-.16-18-17.21-32.57-38.07-32.57h0C61,42.74,43.93,57.26,43.78,75.31"/></g></g></g></g></g></g></svg>