<svg xmlns="http://www.w3.org/2000/svg" viewBox="0 0 198.39 192.26"><defs><style>.cls-1{fill:#961d59;}.cls-2{fill:#d62783;}</style></defs><title>consul</title><g id="Layer_2" data-name="Layer 2"><g id="Layer_1-2" data-name="Layer 1"><path class="cls-1" d="M95.48,116.46a20.65,20.65,0,1,1,20.64-20.65,20.38,20.38,0,0,1-20.64,20.65"/><path class="cls-2" d="M135.81,105.49a9.68,9.68,0,1,1,9.68-9.68,9.71,9.71,0,0,1-9.68,9.68m34.84,9a7.87,7.87,0,1,1,.32-.65,1,1,0,0,1-.32.64M163.86,90A9.62,9.62,0,1,1,171,78.38a7.87,7.87,0,0,1,0,3.87,8.84,8.84,0,0,1-7.1,7.74M198,113.22a9.49,9.49,0,1,1-7.74-11,10.08,10.08,0,0,1,8.07,10.32c-.32.32-.32.32-.32.65m-7.73-23.86a9.49,9.49,0,1,1,7.74-11,6.93,6.93,0,0,1,0,2.58,9.25,9.25,0,0,1-7.74,8.39m-6.77,57.1a9.46,9.46,0,1,1-3.55-12.9,9.72,9.72,0,0,1,4.84,9,18.15,18.15,0,0,1-1.29,3.87M180,58.72a9.46,9.46,0,1,1,3.55-12.9,11.38,11.38,0,0,1,1.29,5.48A9.65,9.65,0,0,1,180,58.72"/><path class="cls-2" d="M95.81,192.26A96.18,96.18,0,0,1,27.74,164.2,97.85,97.85,0,0,1,0,96.13,95.81,95.81,0,0,1,95.81,0a95.11,95.11,0,0,1,58.39,19.68L142.26,35.16A76.53,76.53,0,0,0,41.95,150.33a75.57,75.57,0,0,0,54.19,22.26,74.88,74.88,0,0,0,46.45-15.81l11.61,15.48a95.45,95.45,0,0,1-58.39,20Z"/></g></g></svg>