<svg xmlns="http://www.w3.org/2000/svg" viewBox="0 0 305 197.36"><defs><style>.cls-1{fill:#364548;}.cls-2{fill:#22a0c8;}.cls-3{fill:#37b1d9;}.cls-4{fill:#1b81a5;}.cls-5{fill:#1d91b4;}.cls-6{fill:#23a3c2;}.cls-7{fill:#34bbde;}.cls-8{fill:#d3ecec;}.cls-9{fill:#bdd9d7;}</style></defs><title>docker</title><g id="Layer_2" data-name="Layer 2"><g id="Layer_1-2" data-name="Layer 1"><path class="cls-1" d="M158.41,62.32h31.16V94.18h15.76A68.33,68.33,0,0,0,227,90.55a55.45,55.45,0,0,0,10.53-4.76c-4.4-5.74-6.64-13-7.3-20.14-.9-9.72,1.06-22.38,7.64-30l3.28-3.79L245,35c9.83,7.89,18.09,18.93,19.55,31.5,11.83-3.48,25.73-2.66,36.16,3.36L305,72.35l-2.25,4.4c-8.82,17.21-27.26,22.55-45.29,21.6-27,67.2-85.72,99-156.93,99-36.8,0-70.55-13.75-89.77-46.4l-.31-.53-2.8-5.7C1.13,130.36-1,114.62.44,98.89l.44-4.71H27.53V62.32H58.69V31.16H121V0h37.39V62.32"/><path class="cls-2" d="M259.36,74.11c2.09-16.24-10.06-29-17.6-35-8.69,10-10,36.36,3.59,47.44-7.6,6.75-23.63,12.88-40,12.88H5.61C4,116.5,7,132.27,13.89,145.77l2.27,4.16A77,77,0,0,0,20.87,157q12.32.79,22.71.56h0c13.61-.3,24.72-1.91,33.13-4.82a2.4,2.4,0,0,1,1.57,4.53c-1.12.39-2.29.75-3.49,1.1h0a104.18,104.18,0,0,1-22.9,3.73c.55,0-.57.08-.57.08l-1,.08c-3.61.2-7.5.25-11.49.25-4.36,0-8.64-.08-13.44-.33l-.12.08c16.64,18.7,42.66,29.92,75.27,29.92,69,0,127.57-30.6,153.49-99.29,18.39,1.89,36.07-2.8,44.11-18.5-12.81-7.39-29.28-5-38.76-.27"/><path class="cls-3" d="M259.36,74.11c2.09-16.24-10.06-29-17.6-35-8.69,10-10,36.36,3.59,47.44-7.6,6.75-23.63,12.88-40,12.88H17.44c-.81,26.23,8.92,46.14,26.14,58.17h0c13.61-.3,24.72-1.91,33.13-4.82a2.4,2.4,0,0,1,1.57,4.53c-1.12.39-2.29.75-3.49,1.1h0a109.54,109.54,0,0,1-23.51,3.89l-.22-.21c23.49,12,57.55,12,96.6-3,43.79-16.82,84.53-48.87,113-85.52q-.64.29-1.25.59"/><path class="cls-4" d="M6,120.18a79.82,79.82,0,0,0,7.9,25.59l2.27,4.16A76.91,76.91,0,0,0,20.87,157q12.32.79,22.71.56c13.61-.3,24.72-1.91,33.13-4.82a2.4,2.4,0,0,1,1.57,4.53c-1.12.39-2.29.75-3.49,1.1h0a109.57,109.57,0,0,1-23.47,3.81l-1.18,0c-3.61.2-7.46.33-11.44.33-4.35,0-8.81-.08-13.6-.33,16.64,18.7,42.82,30,75.43,30,59.09,0,110.5-22.43,140.34-72H6"/><path class="cls-5" d="M19.24,120.18c3.53,16.11,12,28.75,24.34,37.36,13.61-.3,24.72-1.91,33.13-4.82a2.4,2.4,0,0,1,1.57,4.53c-1.12.39-2.29.75-3.49,1.1h0a111.21,111.21,0,0,1-23.64,3.81c23.49,12,57.45,11.87,96.5-3.12,23.62-9.08,46.36-22.59,66.75-38.86H19.24"/><path class="cls-6" d="M32.72,67.52h27v27h-27ZM35,69.77H37.1V92.27H35Zm4,0h2.22V92.27H39V69.77Zm4.09,0h2.22V92.27H43.07Zm4.09,0h2.22V92.27H47.16Zm4.09,0h2.22V92.27H51.25V69.77Zm4.09,0h2.13V92.27H55.34Zm8.54-33.41h27v27h-27v-27Zm2.25,2.25h2.13V61.11H66.13Zm4,0h2.22V61.11H70.14V38.61Zm4.09,0h2.22V61.11H74.23Zm4.09,0h2.22V61.11H78.32Zm4.09,0h2.22V61.11H82.41Zm4.09,0h2.13V61.11H86.5Z"/><path class="cls-7" d="M63.88,67.52h27v27h-27v-27Zm2.25,2.25h2.13V92.27H66.13Zm4,0h2.22V92.27H70.14V69.77Zm4.09,0h2.22V92.27H74.23Zm4.09,0h2.22V92.27H78.32Zm4.09,0h2.22V92.27H82.41Zm4.09,0h2.13V92.27H86.5Z"/><path class="cls-6" d="M95,67.52h27v27H95Zm2.25,2.25h2.13V92.27H97.29Zm4,0h2.22V92.27H101.3Zm4.09,0h2.22V92.27h-2.22Zm4.09,0h2.22V92.27h-2.22Zm4.09,0h2.22V92.27h-2.22Zm4.09,0h2.13V92.27h-2.13Z"/><path class="cls-7" d="M95,36.36h27v27H95Zm2.25,2.25h2.13V61.11H97.29Zm4,0h2.22V61.11H101.3Zm4.09,0h2.22V61.11h-2.22Zm4.09,0h2.22V61.11h-2.22Zm4.09,0h2.22V61.11h-2.22Zm4.09,0h2.13V61.11h-2.13Zm8.54,28.91h27v27h-27Zm2.25,2.25h2.13V92.27h-2.13Zm4,0h2.22V92.27h-2.22Zm4.09,0h2.22V92.27h-2.22Zm4.09,0h2.22V92.27h-2.22Zm4.09,0H147V92.27h-2.22Zm4.09,0H151V92.27h-2.13Z"/><path class="cls-6" d="M126.2,36.36h27v27h-27Zm2.25,2.25h2.13V61.11h-2.13Zm4,0h2.22V61.11h-2.22Zm4.09,0h2.22V61.11h-2.22Zm4.09,0h2.22V61.11h-2.22Zm4.09,0H147V61.11h-2.22Zm4.09,0H151V61.11h-2.13Z"/><path class="cls-7" d="M126.2,5.19h27v27h-27Zm2.25,2.25h2.13V29.95h-2.13V7.44Zm4,0h2.22V29.95h-2.22V7.44Zm4.09,0h2.22V29.95h-2.22V7.44Zm4.09,0h2.22V29.95h-2.22V7.44Zm4.09,0H147V29.95h-2.22V7.44Zm4.09,0H151V29.95h-2.13V7.44Z"/><path class="cls-6" d="M157.37,67.52h27v27h-27Zm2.25,2.25h2.13V92.27h-2.13V69.77Zm4,0h2.22V92.27h-2.22V69.77Zm4.09,0h2.22V92.27h-2.22Zm4.09,0H174V92.27h-2.22Zm4.09,0h2.22V92.27H175.9Zm4.09,0h2.13V92.27H180Z"/><path class="cls-8" d="M89.2,138.31a7.45,7.45,0,1,1,.2,14.9h-.2a7.45,7.45,0,0,1,0-14.9"/><path class="cls-1" d="M89.2,140.43a5.32,5.32,0,0,1,1.93.36,2.18,2.18,0,1,0,3,2.93,5.34,5.34,0,1,1-4.93-3.29"/><path class="cls-9" d="M109,192c-18.45-8.76-28.58-20.66-34.21-33.65a114.31,114.31,0,0,1-24.67,3.74q-5.41.3-11.38.31-6.88,0-14.5-.4c16.92,16.91,37.74,29.93,76.28,30.17q4.27,0,8.48-.16"/><path class="cls-8" d="M81.64,170.34a64.68,64.68,0,0,1-6.85-12,114.23,114.23,0,0,1-24.67,3.75c6.58,3.57,16,6.88,31.52,8.24"/></g></g></svg>