<svg xmlns="http://www.w3.org/2000/svg" viewBox="0 0 316.39 210.1"><defs><style>.cls-1{fill:#fff;}</style></defs><title>mysql</title><g id="Layer_2" data-name="Layer 2"><g id="Layer_1-2" data-name="Layer 1"><path class="cls-1" d="M309.45,0c-4.89.16-3.34,1.57-13.91,4.17S271.84,6,260.35,10.81C226,25.19,219.17,74.36,188,92c-23.31,13.16-46.82,14.21-68,20.84-13.89,4.36-29.09,13.29-41.68,24.14-9.77,8.42-10,15.83-20.23,26.39-10.92,11.3-43.4.19-58.12,17.48,4.74,4.79,6.82,6.14,16.16,4.89-1.93,3.67-13.34,6.76-11.11,12.15,2.35,5.68,29.92,9.52,55-5.61,11.67-7,21-17.21,39.15-19.63,23.52-3.14,50.62,2,77.86,5.94-4,12-12.15,20-18.64,29.64-2,2.17,4,2.41,10.94,1.1,12.42-3.07,21.36-5.54,30.73-11,11.51-6.7,13.26-23.88,27.38-27.6,7.87,12.1,29.28,15,42.56,5.28-11.65-3.3-14.88-28.11-10.94-39,3.73-10.35,7.41-26.9,11.16-40.58,4-14.69,5.51-33.2,10.39-40.69,7.34-11.26,15.44-15.12,22.48-21.47S316.6,21.68,316.38,7.15c-.07-4.68-2.49-7.29-6.94-7.15Z"/><path d="M10.12,197.83c17.85,2.56,28.7,0,43-6.21,12.2-5.29,24-16.19,38.38-20.82,21.15-6.79,44.34,0,67,1.36a97.35,97.35,0,0,0,16.38-.25c8.42-5.18,8.25-24.54,16.45-26.31-.24,27.17-11.38,43.44-23,59.2,24.55-4.34,39.24-18.53,49.16-37.5a138.43,138.43,0,0,0,7.85-18.42c3.51,2.7,1.52,10.9,3.29,15.35,16.91-9.42,26.59-30.91,33-52.65C269,86.42,272,60.94,276.82,53.5c4.67-7.27,11.94-11.75,18.57-16.4,7.54-5.29,14.26-10.8,15.42-20.88-7.95-.74-9.79-2.57-11-6.58-4,2.24-7.64,2.72-11.77,2.85-3.59.11-7.53-.05-12.34.44-39.81,4.09-44.87,48-70.39,72.84a59.85,59.85,0,0,1-6,5.08c-8.94,6.66-19.9,11.42-30,15.27-16.32,6.24-31.83,6.68-47.14,12.06a141.16,141.16,0,0,0-31.89,16Q87,136.46,83.86,139c-5.42,4.43-9,9.35-12.41,14.41-3.55,5.21-7,10.58-12.19,15.7-8.46,8.31-40.07,2.42-51.2,10.13a9.08,9.08,0,0,0-2.9,3.12c6.07,2.76,10.13,1.07,17.11,1.84.92,6.63-14.41,10.57-12.15,13.62Zm241.19-47.75c.48,7.6,4.89,22.69,8.79,26.36-7.63,1.86-20.78-1.21-24.15-6.59,1.73-7.77,10.75-14.88,15.37-19.76Z"/><path class="cls-1" d="M262.5,29.39c5.63,4.89,17.46,1,15.35-8.77C269.09,19.9,264,22.87,262.5,29.39ZM301.79,18c-1.5,3.14-4.37,7.2-4.37,15.2,0,1.37-1,2.32-1.06.2.08-7.82,2.15-11.2,4.35-15.65,1-1.82,1.64-1.07,1.08.25Z"/><path class="cls-1" d="M300.28,16.83c-1.77,3-6,8.47-6.73,16.45-.13,1.37-1.24,2.21-1.07.1.77-7.78,4.17-12.66,6.75-16.89C300.4,14.76,301,15.57,300.28,16.83Zm-1.38-1.57c-2,2.84-8.57,9.41-9.94,17.3-.25,1.35-1.42,2.1-1.08,0,1.42-7.69,7.07-13.74,10-17.74C299.2,13.21,299.68,14.06,298.9,15.26Zm-1.23-1.75C295.28,16,287.47,24.42,285,32c-.44,1.3-1.71,1.88-1.07-.14,2.48-7.42,9.33-15.41,12.79-19C298.26,11.52,298.61,12.43,297.68,13.51Z"/></g></g></svg>