<svg xmlns="http://www.w3.org/2000/svg" viewBox="0 0 229.81 168.89"><defs><style>.cls-1{fill:#008774;}.cls-2{fill:#00ae9e;}</style></defs><title>pcf</title><g id="Layer_2" data-name="Layer 2"><g id="Layer_1-2" data-name="Layer 1"><path class="cls-1" d="M134.76,142.93A67.38,67.38,0,1,0,2.4,160.78h0a66.86,66.86,0,0,0,2.09,6.37,2.79,2.79,0,0,0,2.6,1.74H25.42a2.76,2.76,0,0,0,2.44-4.09,40.34,40.34,0,0,1-2-4h0a45.17,45.17,0,1,1,82.92,0h0a45.06,45.06,0,0,1-2.11,4.27,2.6,2.6,0,0,0,2.29,3.86h18.76a2.6,2.6,0,0,0,2.44-1.62,66.8,66.8,0,0,0,2.13-6.48h0A67.11,67.11,0,0,0,134.76,142.93Z"/><path class="cls-2" d="M144.25,53.32A85.47,85.47,0,0,0,61.53,160.61h0c.57,2.19,1.2,4.36,1.94,6.49A2.71,2.71,0,0,0,66,168.89H84.19a2.69,2.69,0,0,0,2.44-3.81c-.67-1.46-1.25-3-1.8-4.46h0a63.26,63.26,0,1,1,118.88,0h0q-.86,2.37-1.9,4.66a2.55,2.55,0,0,0,2.32,3.62h18.38a2.58,2.58,0,0,0,2.44-1.62c.76-2.16,1.39-4.35,2-6.57h0A85.47,85.47,0,0,0,144.25,53.32Z"/><path class="cls-1" d="M191.6,75.81A75.82,75.82,0,0,0,40,75.81c0,2.34.13,4.64.32,6.91H62.58A53.53,53.53,0,0,1,169.1,72q.19,1.91.25,3.83c0,1,0,1.94-.08,2.9h0a53.28,53.28,0,0,1-10.71,29.34,2.87,2.87,0,0,0,2.3,4.62h19.47a2.89,2.89,0,0,0,2.56-1.52,75.28,75.28,0,0,0,8.68-32.45h0C191.55,77.75,191.6,76.78,191.6,75.81Z"/></g></g></svg>