<svg xmlns="http://www.w3.org/2000/svg" viewBox="0 0 257.68 265.66"><defs><style>.cls-1{fill:#336791;}.cls-2{fill:#fff;}</style></defs><title>postgres</title><g id="Layer_2" data-name="Layer 2"><g id="Layer_1-2" data-name="Layer 1"><path d="M257,159.14a13.07,13.07,0,0,0-10.85-8.74,24.85,24.85,0,0,0-8.66.48,77.84,77.84,0,0,1-13.34,1.75,257.36,257.36,0,0,0,27.25-64.81c9-35,4.21-50.95-1.44-58.16C235,10.58,213.22.32,186.92,0A111.7,111.7,0,0,0,154.15,4.6,122,122,0,0,0,135,2.84c-12.65-.2-23.83,2.56-33.38,8.22A152.18,152.18,0,0,0,78,5.15c-23-3.78-41.62-.84-55.21,8.76C6.38,25.53-1.25,45.73.17,73.93c.45,9,5.46,36.2,13.34,62,4.53,14.85,9.37,27.18,14.36,36.66C35,186.05,42.55,194,51.07,196.8c4.77,1.59,13.45,2.7,22.57-4.89A19.74,19.74,0,0,0,78.38,196a31.58,31.58,0,0,0,9,3.77c11.44,2.86,22.16,2.15,31.31-1.86.06,1.63.1,3.18.14,4.52.06,2.18.12,4.31.2,6.31.54,13.49,1.46,24,4.18,31.33.15.4.35,1,.56,1.67,1.36,4.15,3.63,11.11,9.4,16.56,6,5.64,13.21,7.37,19.83,7.37a44.57,44.57,0,0,0,9.27-1c9.91-2.12,21.16-5.36,29.3-16.95,7.7-11,11.44-27.46,12.11-53.47.09-.74.17-1.44.25-2.11l.16-1.37,1.81.16.47,0c10.09.46,22.43-1.68,30-5.2,6-2.78,25.18-12.91,20.66-26.59"/><path class="cls-1" d="M239.74,161.8c-30,6.19-32.07-4-32.07-4,31.68-47,44.93-106.69,33.5-121.29C210-3.3,156,15.54,155.11,16l-.29.05a107,107,0,0,0-20-2.09c-13.58-.22-23.88,3.56-31.69,9.49,0,0-96.29-39.67-91.81,49.89,1,19.05,27.31,144.16,58.74,106.37,11.49-13.82,22.59-25.5,22.59-25.5a29.14,29.14,0,0,0,19,4.86l.54-.46a21,21,0,0,0,.21,5.38c-8.1,9-5.72,10.64-21.91,14-16.38,3.38-6.76,9.39-.48,11,7.62,1.9,25.24,4.6,37.14-12.07l-.47,1.9c3.17,2.54,5.4,16.53,5,29.21s-.62,21.39,1.88,28.19,5,22.1,26.27,17.54c17.78-3.81,27-13.69,28.28-30.16.91-11.71,3-10,3.1-20.45l1.65-5c1.9-15.87.3-21,11.26-18.61l2.66.23c8.06.37,18.62-1.3,24.81-4.18,13.34-6.19,21.25-16.52,8.1-13.81h0"/><path class="cls-2" d="M108.75,81.89c-2.7-.38-5.15,0-6.39.91a2.35,2.35,0,0,0-1,1.56,4.56,4.56,0,0,0,1.11,3,8.36,8.36,0,0,0,5.31,3.31,6,6,0,0,0,.85.06c3.27,0,6.25-2.55,6.51-4.43.33-2.36-3.09-3.93-6.41-4.39m89.58.07c-.26-1.85-3.55-2.37-6.67-1.94s-6.14,1.84-5.88,3.69c.2,1.44,2.8,3.9,5.88,3.9a5.62,5.62,0,0,0,.79-.05,7.58,7.58,0,0,0,4.28-2.34A4.71,4.71,0,0,0,198.33,82"/><path class="cls-2" d="M249.73,161.1c-1.14-3.46-4.83-4.57-10.95-3.31-18.17,3.75-24.67,1.15-26.81-.42a249.79,249.79,0,0,0,32-71.78c3-11.49,4.61-22.17,4.74-30.86.15-9.55-1.48-16.56-4.83-20.85C230.37,16.59,210.52,7.33,186.5,7.07c-16.52-.19-30.47,4-33.18,5.23a82.71,82.71,0,0,0-18.67-2.4c-12.4-.2-23.12,2.77-32,8.82a142.8,142.8,0,0,0-26-6.82c-21.06-3.39-37.79-.82-49.74,7.64C12.68,29.64,6.1,47.69,7.38,73.18c.43,8.58,5.32,35,13,60.23,10.15,33.26,21.19,52.09,32.8,56a14.69,14.69,0,0,0,4.65.77c4.24,0,9.43-1.91,14.83-8.4q9.89-11.86,20.44-23.13a32.94,32.94,0,0,0,14.71,4c0,.13,0,.27,0,.4q-1.32,1.58-2.59,3.2c-3.55,4.51-4.29,5.45-15.73,7.81-3.25.67-11.9,2.45-12,8.51-.14,6.62,10.22,9.4,11.4,9.69a48.8,48.8,0,0,0,11.85,1.54,34.48,34.48,0,0,0,23.73-8.86c-.2,23.6.78,46.85,3.62,53.93,2.32,5.8,8,20,25.89,20a41.54,41.54,0,0,0,8.7-1c18.69-4,26.8-12.27,29.94-30.47,1.68-9.73,4.56-33,5.92-45.43a36.62,36.62,0,0,0,10.53,1.3c8.31,0,17.89-1.76,23.9-4.55,6.75-3.14,18.94-10.83,16.73-17.52Zm-44.5-84.23a75.6,75.6,0,0,1-1.1,10.51,97,97,0,0,0-1.33,12.33,93.54,93.54,0,0,0,1,13.95c1.12,9.3,2.27,18.88-2.18,28.33a36.83,36.83,0,0,1-2-4c-.55-1.34-1.75-3.49-3.41-6.46-6.46-11.58-21.58-38.69-13.84-49.76,2.31-3.29,8.16-6.68,22.84-4.86Zm-17.8-62.34C208.95,15,226,23.05,238,38.46c9.25,11.82-.94,65.58-30.41,112l-.89-1.13-.37-.47c7.62-12.58,6.13-25,4.8-36.06a86.47,86.47,0,0,1-.93-12.82,90.82,90.82,0,0,1,1.24-11.44,72.25,72.25,0,0,0,1.16-14.16,5.87,5.87,0,0,0,.12-2c-.48-5.09-6.29-20.32-18.14-34.11a81.7,81.7,0,0,0-28.83-21.68,97.22,97.22,0,0,1,21.63-2ZM67,177c-6,7.16-10.06,5.79-11.42,5.34-8.81-2.94-19-21.56-28-51.08C19.72,105.7,15.16,80,14.8,72.81,13.66,50,19.19,34.15,31.22,25.62,50.79,11.74,83,20,95.92,24.26l-.56.54C74.13,46.24,74.63,82.86,74.68,85.1c0,.86.07,2.09.17,3.77a151.52,151.52,0,0,1-.77,30.61,38.71,38.71,0,0,0,10.2,32.4q1.26,1.31,2.64,2.49c-3.64,3.89-11.54,12.51-20,22.63Zm22.68-30.26a31.32,31.32,0,0,1-8.21-26.22,158.4,158.4,0,0,0,.83-32.08c-.05-.9-.1-1.69-.13-2.31,3.1-2.75,17.47-10.45,27.72-8.1,4.68,1.07,7.53,4.25,8.71,9.73,6.13,28.36.81,40.17-3.46,49.67-.88,2-1.71,3.81-2.42,5.72l-.55,1.48a97,97,0,0,0-3.5,10.52,26.45,26.45,0,0,1-19-8.41ZM90.73,185a16.44,16.44,0,0,1-5-2.13,24.23,24.23,0,0,1,5.29-1.57c13.46-2.77,15.54-4.73,20.07-10.49,1-1.32,2.22-2.82,3.85-4.64h0c2.43-2.72,3.55-2.26,5.56-1.42a7.87,7.87,0,0,1,3.87,5,5.55,5.55,0,0,1-.47,4.66C114.47,187.62,100.65,187.45,90.73,185Zm70.43,65.54C144.69,254,138.86,245.63,135,236c-2.48-6.2-3.7-34.15-2.83-65a3.72,3.72,0,0,0-.16-1.18,15.58,15.58,0,0,0-.46-2.18,15.07,15.07,0,0,0-8.18-9.81,11.53,11.53,0,0,0-7.53-.91,91,91,0,0,1,3.24-9.7l.55-1.49c.62-1.68,1.41-3.42,2.23-5.26,4.47-9.94,10.6-23.55,4-54.29C123.35,74.67,115,69,102.43,70.35a54,54,0,0,0-17.92,5.58c-.74.38-1.42.74-2.05,1.09,1-11.6,4.6-33.29,18.2-47,8.57-8.64,20-12.9,33.87-12.67,27.38.45,44.94,14.5,54.85,26.21a83.25,83.25,0,0,1,15,25.74c-13.88-1.41-23.32,1.33-28.1,8.17-10.41,14.88,5.69,43.76,13.43,57.64,1.42,2.54,2.64,4.74,3,5.68a51.54,51.54,0,0,0,8.17,13.16c.73.91,1.44,1.8,2,2.57-4.2,1.21-11.75,4-11.07,18-.55,7-4.5,39.9-6.51,51.52-2.65,15.35-8.29,21.06-24.17,24.47Zm68.72-78.64c-4.3,2-11.49,3.49-18.32,3.81-7.55.35-11.39-.85-12.29-1.58-.42-8.72,2.82-9.63,6.26-10.6.54-.15,1.07-.3,1.58-.48a12.84,12.84,0,0,0,1,.76c6.07,4,16.89,4.44,32.16,1.28l.17,0a41.12,41.12,0,0,1-10.58,6.83Z"/></g></g></svg>