<svg xmlns="http://www.w3.org/2000/svg" viewBox="0 0 213.5 182.3"><defs><style>.cls-1{fill:#912626;}.cls-2{fill:#c6302b;}.cls-3{fill:#fff;}.cls-4{fill:#621b1c;}.cls-5{fill:#9a2928;}</style></defs><title>redis</title><g id="Layer_2" data-name="Layer 2"><g id="Layer_1-2" data-name="Layer 1"><path class="cls-1" d="M205.13,140.41c-11.39,5.94-70.42,30.21-83,36.76s-19.55,6.49-29.47,1.74S19.94,148.79,8.63,143.38C3,140.68,0,138.4,0,136.25V114.67s81.77-17.8,95-22.54,17.78-4.91,29-.79,78.41,16.24,89.51,20.3v21.27c0,2.13-2.56,4.47-8.36,7.5"/><path class="cls-2" d="M205.13,119c-11.39,5.94-70.41,30.21-83,36.76s-19.55,6.49-29.47,1.74-72.74-30.12-84-35.52-11.55-9.13-.44-13.48S81.77,79.59,95,74.85s17.78-4.91,29-.79,69.9,27.47,81,31.53,11.53,7.42.14,13.36"/><path class="cls-1" d="M205.13,105.49c-11.39,5.94-70.42,30.21-83,36.76s-19.55,6.49-29.47,1.74S19.94,113.87,8.63,108.47C3,105.76,0,103.49,0,101.33V79.75s81.77-17.8,95-22.54,17.78-4.91,29-.79,78.41,16.23,89.51,20.3V98c0,2.13-2.56,4.47-8.36,7.5"/><path class="cls-2" d="M205.13,84c-11.39,5.94-70.41,30.21-83,36.76s-19.55,6.49-29.47,1.74S19.94,92.42,8.63,87s-11.55-9.13-.44-13.48S81.77,44.67,95,39.94s17.78-4.91,29-.79,69.9,27.47,81,31.53,11.53,7.42.14,13.36"/><path class="cls-1" d="M205.13,69.28c-11.39,5.94-70.42,30.21-83,36.76s-19.55,6.49-29.47,1.74S19.94,77.66,8.63,72.26C3,69.55,0,67.27,0,65.12V43.53S81.77,25.74,95,21s17.78-4.91,29-.79,78.41,16.23,89.51,20.3V61.78c0,2.13-2.56,4.47-8.36,7.49"/><path class="cls-2" d="M205.13,47.83c-11.39,5.94-70.41,30.21-83,36.76s-19.55,6.49-29.47,1.74S19.94,56.21,8.63,50.8s-11.55-9.13-.44-13.48S81.77,8.46,95,3.72s17.78-4.91,29-.79,69.9,27.47,81,31.53,11.53,7.42.14,13.36"/><path class="cls-3" d="M132.84,26.83l-18.36,1.91-4.11,9.89-6.64-11-21.2-1.9L98.36,20l-4.75-8.76L108.42,17l14-4.57-3.77,9.05,14.23,5.33m-23.56,48L75,60.59l49.09-7.54L109.28,74.8M61.78,32.33C76.27,32.33,88,36.88,88,42.5S76.27,52.67,61.78,52.67,35.55,48.11,35.55,42.5,47.29,32.33,61.78,32.33"/><path class="cls-4" d="M154.53,29.53,183.59,41l-29,11.47,0-23"/><path class="cls-5" d="M122.39,42.25l32.14-12.71,0,23-3.15,1.23-29-11.47"/></g></g></svg>