<?xml version="1.0" encoding="UTF-8"?> <!-- Generator: Adobe Illustrator 21.0.0, SVG Export Plug-In . SVG Version: 6.00 Build 0) --> <svg xmlns:cc="http://creativecommons.org/ns#" xmlns:dc="http://purl.org/dc/elements/1.1/" xmlns:inkscape="http://www.inkscape.org/namespaces/inkscape" xmlns:rdf="http://www.w3.org/1999/02/22-rdf-syntax-ns#" xmlns:sodipodi="http://sodipodi.sourceforge.net/DTD/sodipodi-0.dtd" xmlns:svg="http://www.w3.org/2000/svg" xmlns="http://www.w3.org/2000/svg" xmlns:xlink="http://www.w3.org/1999/xlink" id="logo" inkscape:version="0.47 r22583" sodipodi:docname="VMW_10Q1_LGO_GUIDE_USLET_EN_R1.pdf" x="0px" y="0px" viewBox="0 0 400 300" style="enable-background:new 0 0 400 300;" xml:space="preserve"> <style type="text/css"> .st0{fill:#696566;} </style> <path id="logo_1_" class="st0" d="M172.2,175.7l-17.3-48.1c-0.2-0.7-0.5-1.5-0.5-2.3c0-2.1,1.8-4.1,4.3-4.1c2.2,0,3.6,1.4,4.3,3.5 l14.3,41.5l14.4-41.6c0.7-2,2-3.4,4.2-3.4h0.4c2.3,0,3.7,1.4,4.4,3.4l14.3,41.6l14.5-41.7c0.5-1.8,1.8-3.3,4.1-3.3 c2.4,0,4.2,1.9,4.2,4c0,0.8-0.3,1.6-0.5,2.3l-17.4,48.2c-0.9,2.5-2.6,3.8-4.6,3.8h-0.3c-2.2,0-3.9-1.3-4.6-3.8l-14.2-40.9 l-14.3,40.9c-0.8,2.5-2.4,3.8-4.6,3.8h-0.2C174.8,179.5,173.1,178.2,172.2,175.7 M298.2,125.3c0-2.3,1.9-4.3,4.2-4.3 c2.4,0,4.3,1.9,4.3,4.3v9.8c4.2-9.5,13.5-14,19.6-14c2.5,0,4.2,1.9,4.2,4.3c0,2.3-1.5,4-3.8,4.3c-11,1.3-20.1,9.6-20.1,26v19.3 c0,2.3-1.8,4.3-4.2,4.3c-2.4,0-4.3-1.9-4.3-4.3L298.2,125.3L298.2,125.3z M357.7,180c-15.4,0-27.9-11.9-27.9-29.4v-0.2 c0-16.3,11.4-29.4,26.8-29.4c16.5,0,25.9,13.6,25.9,28.6c0,2.3-1.9,3.9-3.9,3.9h-40.4c1.2,12.2,9.7,19.1,19.7,19.1 c6.9,0,12-2.7,16.1-6.6c0.6-0.5,1.4-1,2.4-1c2,0,3.7,1.6,3.7,3.6c0,1-0.4,2-1.3,2.7C373.5,176.6,367.2,180,357.7,180 M374.3,147.3 c-0.9-10.3-6.7-19.2-17.8-19.2c-9.7,0-17.1,8.2-18.1,19.2H374.3z M238,162.3v-0.2c0-12,9.9-18.4,24.3-18.4c7.3,0,12.4,1,17.5,2.4v-2 c0-10.2-6.3-15.5-16.9-15.5c-5.7,0-9,0.7-13.2,2.6c-0.5,0.2-1.1,0.3-1.5,0.3c-2,0-3.7-1.7-3.7-3.6c0-1.8,0.8-2.8,2.3-3.5 c5.6-2.4,9.8-3.2,17.1-3.2c8,0,14.2,2.1,18.4,6.3c3.9,3.8,5.8,9.3,5.8,16.6v31.4c0,2.4-1.8,4.2-4.1,4.2c-2.4,0-4-1.8-4-4v-5.4 c-4,5.2-10.6,9.8-20.6,9.8C248.7,180,238,173.9,238,162.3 M279.9,157.9v-5.5c-4.2-1.2-9.8-2.4-16.7-2.4c-10.7,0-16.6,4.6-16.6,11.8 v0.2c0,7.1,6.6,11.3,14.3,11.3C271.3,173.3,279.9,166.9,279.9,157.9 M18.2,124.7c-1.9-4.1-6.5-5.9-10.8-4c-4.3,1.9-5.9,6.7-3.9,10.8 l18,39.2c2.8,6.1,5.8,9.4,11.4,9.4c6,0,8.6-3.5,11.4-9.4c0,0,15.7-34.3,15.9-34.6c0.2-0.4,0.7-1.5,2.3-1.5c1.4,0,2.5,1.1,2.5,2.5 v33.5c0,5.2,2.9,9.4,8.4,9.4c5.5,0,8.5-4.2,8.5-9.4v-27.4c0-5.3,3.8-8.7,9-8.7s8.6,3.6,8.6,8.7v27.4c0,5.2,2.9,9.4,8.4,9.4 c5.5,0,8.5-4.2,8.5-9.4v-27.4c0-5.3,3.8-8.7,8.9-8.7c5.2,0,8.6,3.6,8.6,8.7v27.4c0,5.2,2.9,9.4,8.4,9.4c5.5,0,8.5-4.2,8.5-9.4v-31.2 c0-11.5-9.2-19.5-20.3-19.5c-11.1,0-18,7.7-18,7.7c-3.7-4.8-8.8-7.7-17.4-7.7c-9.1,0-17,7.7-17,7.7c-3.7-4.8-10-7.7-15.2-7.7 c-8.1,0-14.4,3.5-18.3,12.5L33,159.6L18.2,124.7z M383.3,128.1L383.3,128.1c0-3.9,3.1-7.1,7-7.1c4,0,7,3.2,7,7v0 c0,3.9-3.1,7.1-7,7.1C386.3,135.2,383.3,132,383.3,128.1 M396,128.1L396,128.1c0-3.2-2.4-5.8-5.7-5.8c-3.2,0-5.7,2.6-5.7,5.8v0 c0,3.1,2.4,5.7,5.7,5.7C393.5,133.8,396,131.2,396,128.1 M387.6,125.3c0-0.4,0.3-0.8,0.8-0.8h2.3c0.9,0,1.6,0.2,2,0.7 c0.4,0.4,0.6,0.9,0.6,1.6v0c0,1.1-0.5,1.7-1.4,2.1l1,1.3c0.1,0.2,0.2,0.3,0.2,0.6c0,0.4-0.4,0.7-0.7,0.7c-0.3,0-0.6-0.2-0.7-0.4 l-1.5-1.8h-1.2v1.5c0,0.4-0.3,0.7-0.7,0.7c-0.4,0-0.8-0.3-0.8-0.7L387.6,125.3L387.6,125.3z M390.6,127.8c0.7,0,1.1-0.4,1.1-1v0 c0-0.6-0.4-1-1.2-1h-1.5v2L390.6,127.8L390.6,127.8z"></path> </svg> 