<?xml version="1.0" encoding="UTF-8" standalone="no"?>
<!-- Generator: Adobe Illustrator 21.0.0, SVG Export Plug-In . SVG Version: 6.00 Build 0)  -->

<svg
   xmlns:dc="http://purl.org/dc/elements/1.1/"
   xmlns:cc="http://creativecommons.org/ns#"
   xmlns:rdf="http://www.w3.org/1999/02/22-rdf-syntax-ns#"
   xmlns:svg="http://www.w3.org/2000/svg"
   xmlns="http://www.w3.org/2000/svg"
   xmlns:sodipodi="http://sodipodi.sourceforge.net/DTD/sodipodi-0.dtd"
   xmlns:inkscape="http://www.inkscape.org/namespaces/inkscape"
   version="1.1"
   id="Слой_1"
   x="0px"
   y="0px"
   viewBox="0 0 300 300"
   enable-background="new 0 0 400 400"
   xml:space="preserve"
   inkscape:version="0.91 r13725"
   sodipodi:docname="YouTube_social_dark square_(2017).svg"
   width="300"
   height="300"><metadata
     id="metadata17"><rdf:RDF><cc:Work
         rdf:about=""><dc:format>image/svg+xml</dc:format><dc:type
           rdf:resource="http://purl.org/dc/dcmitype/StillImage" /><dc:title></dc:title></cc:Work></rdf:RDF></metadata><defs
     id="defs15"><pattern
       y="0"
       x="0"
       height="6"
       width="6"
       patternUnits="userSpaceOnUse"
       id="EMFhbasepattern" /></defs><sodipodi:namedview
     pagecolor="#ffffff"
     bordercolor="#666666"
     borderopacity="1"
     objecttolerance="10"
     gridtolerance="10"
     guidetolerance="10"
     inkscape:pageopacity="0"
     inkscape:pageshadow="2"
     inkscape:window-width="1366"
     inkscape:window-height="715"
     id="namedview13"
     showgrid="false"
     inkscape:zoom="1.18"
     inkscape:cx="133.32663"
     inkscape:cy="163.82181"
     inkscape:window-x="-8"
     inkscape:window-y="-8"
     inkscape:window-maximized="1"
     inkscape:current-layer="Слой_1"
     fit-margin-top="0"
     fit-margin-left="0"
     fit-margin-right="0"
     fit-margin-bottom="0" /><g
     id="g4189"
     transform="scale(0.75,0.75)"><rect
       width="400"
       height="400"
       id="rect4"
       style="fill:#282828;fill-opacity:1"
       x="0"
       y="0" /><g
       transform="matrix(7.8701756,0,0,7.8701756,695.19553,-948.4235)"
       id="g4167"><path
         inkscape:connector-curvature="0"
         id="path4156"
         d="m -46.505941,137.67659 c -0.381,-1.46049 -1.545166,-2.62464 -3.005666,-3.00564 -2.688082,-0.74083 -13.419498,-0.74083 -13.419498,-0.74083 0,0 -10.710277,0 -13.398415,0.6985 -1.439322,0.40216 -2.624647,1.58748 -3.026811,3.04797 -0.698494,2.68814 -0.698494,8.25495 -0.698494,8.25495 0,0 0,5.58794 0.698494,8.23377 0.402164,1.46047 1.566322,2.62464 3.026811,3.02681 2.709305,0.71966 13.398415,0.71966 13.398415,0.71966 0,0 10.731416,0 13.419498,-0.6985 1.4605,-0.40216 2.624666,-1.54516 3.005666,-3.0268 0.719667,-2.667 0.719667,-8.23378 0.719667,-8.23378 0,0 0.02117,-5.58797 -0.719667,-8.27611 z"
         style="fill:#ffffff;fill-opacity:1;fill-rule:nonzero;stroke:none" /><path
         inkscape:connector-curvature="0"
         id="path4158"
         d="m -66.338938,151.05384 8.91111,-5.1223 -8.91111,-5.14348 z"
         style="fill:#282828;fill-opacity:1;fill-rule:nonzero;stroke:none" /></g></g></svg>