<?xml version="1.0" encoding="utf-8"?>
<!-- Generator: Adobe Illustrator 16.0.0, SVG Export Plug-In . SVG Version: 6.00 Build 0)  -->
<!DOCTYPE svg PUBLIC "-//W3C//DTD SVG 1.1//EN" "http://www.w3.org/Graphics/SVG/1.1/DTD/svg11.dtd">
<svg version="1.1" id="Layer_1" xmlns="http://www.w3.org/2000/svg" xmlns:xlink="http://www.w3.org/1999/xlink" x="0px" y="0px"
	 width="260.79px" height="153.07px" viewBox="0 0 260.79 153.07" enable-background="new 0 0 260.79 153.07" xml:space="preserve">
<rect x="-9" y="-9" fill="#003E7E" width="278.79" height="171.07"/>
<path fill="#2E548F" d="M149.618,55.256c-4.561-3.135-11.578-6.596-18.148-9.543c0.114-7.152,0.064-15.766-0.599-21.496
	l-1.966,0.229c0.628,5.417,0.696,13.487,0.6,20.396c-7.792-3.424-14.511-5.977-15.034-6.176l-0.018,0.045
	c-2.307-0.857-4.843-1.742-7.634-2.633c-14.592-4.657-38.804-10.282-71.298-10.624h-0.176c-13.11,0.138-24.871,1.137-35.199,2.584
	C0.098,28.045,0.049,28.052-9,29.382v1.998c9.049-1.33,9.098-1.337,9.146-1.344c10.312-1.458,22.078-2.465,35.21-2.604h0.153
	c32.191,0.339,56.172,5.898,70.621,10.501c13.379,4.264,21.264,8.509,23.326,9.687c-0.126,6.027-0.347,10.611-0.352,10.711
	l0.258,0.014c-0.644,13.887-2.914,26.655-6.787,38.167c-4.994,0.898-9.873,1.715-14.644,2.457c0.874-2.092,1.685-4.238,2.429-6.441
	c0.059-0.176,0.121-0.346,0.18-0.52c0.082-0.248,0.157-0.502,0.238-0.75c1.076-3.33,2.014-6.779,2.799-10.354
	c0.104-0.475,0.198-0.961,0.297-1.441c0.102-0.486,0.207-0.969,0.303-1.461c1.292-6.655,2.088-13.708,2.391-21.12
	c0.008-0.207,0.021-0.41,0.029-0.617l0.025-0.674v-0.002l-0.617-0.27c-2.67-1.166-5.528-2.281-8.51-3.348
	c-1.69-0.604-3.41-1.199-5.188-1.766c-0.145-0.047-0.299-0.09-0.443-0.137c-0.92-0.291-1.883-0.584-2.883-0.881
	c-0.356-0.105-0.714-0.209-1.074-0.312c-0.854-0.248-1.735-0.496-2.643-0.744c-0.225-0.061-0.441-0.125-0.665-0.186l-1.144-0.309
	v0.006c-7.442-1.955-16.568-3.867-27.293-5.253v-0.107l-0.418-0.049l-0.076-9.133l-1.978,0.017l0.075,8.894
	c-3.612-0.397-7.588-0.749-11.586-1.028c-0.381-0.027-0.767-0.052-1.15-0.077c-1.099-0.073-2.191-0.141-3.277-0.201
	c-0.74-0.042-1.484-0.081-2.236-0.116c-1.412-0.069-2.796-0.127-4.134-0.171c-0.124-0.004-0.245-0.01-0.369-0.014l-0.065-7.632
	l-1.977,0.017l0.064,7.574c-1.198-0.028-2.389-0.062-3.611-0.076c-1.345,0.015-2.655,0.05-3.969,0.082l-0.064-7.597l-1.977,0.017
	l0.064,7.63c-0.643,0.021-1.266,0.053-1.902,0.077c-0.895,0.035-1.801,0.065-2.681,0.108c-0.907,0.045-1.787,0.103-2.677,0.155
	c-0.775,0.046-1.561,0.088-2.324,0.14c-0.934,0.064-1.844,0.139-2.76,0.211c-0.686,0.055-1.379,0.105-2.053,0.164
	c-0.947,0.082-1.871,0.174-2.797,0.265c-0.613,0.061-1.23,0.118-1.834,0.182c-0.945,0.101-1.869,0.207-2.792,0.315
	C7.105,42.101,6.547,42.164,6,42.231c-0.934,0.116-1.849,0.237-2.76,0.361c-0.504,0.068-1.011,0.137-1.508,0.207
	c-0.541,0.078-1.068,0.157-1.598,0.237C0.09,43.044,0.045,43.051-9,44.479v2c9.051-1.43,9.102-1.438,9.152-1.446
	c0.533-0.082,1.064-0.164,1.61-0.242c0.413-0.06,0.839-0.114,1.257-0.173c0.977-0.135,1.955-0.268,2.959-0.394
	c0.392-0.05,0.797-0.094,1.191-0.141c1.057-0.127,2.116-0.254,3.203-0.37c0.293-0.031,0.597-0.058,0.892-0.088
	c3.89-0.402,7.971-0.729,12.241-0.965c0.272-0.015,0.535-0.034,0.809-0.048c1.067-0.056,2.164-0.096,3.254-0.14
	c0.547-0.021,1.084-0.048,1.637-0.066v20.906c-3.494,0.092-6.985,0.262-10.467,0.518c-6.207,0.458-12.387,1.199-18.524,2.188
	C0.143,66.03,0.071,66.042-9,67.433V69.8c9.068-1.392,9.137-1.403,9.206-1.415c8.333-1.394,18.198-2.519,29.485-2.91l0.053,6.203
	l1.979-0.016l-0.055-6.396c2.598-0.039,5.123-0.031,7.58,0.016l0.055,6.396l0.393-0.002v11.372
	c-2.832,0.047-5.582,0.072-8.236,0.076l-0.066-7.839l-1.977,0.018l0.066,7.819C17.9,83.099,8.068,82.714,0,82.187l-9-0.617v2.695
	c4.309,0.337,9,0.578,9,0.578c8.113,0.541,16.237,0.658,21.697,0.658c3.451,0,6.133-0.043,7.508-0.072v20.004
	c-10.979-0.01-20.711-0.455-29.205-1.137l-9-0.859v2.564l9,0.791c2.348,0.225,4.605,0.42,6.705,0.572v11.318
	c-2.245-0.182-4.48-0.387-6.705-0.613c0,0-5.088-0.6-9-1.512c0,0.742,0,2.544,0,2.544c2.627,0.575,9,1.411,9,1.411
	c9.348,1.037,19.1,1.576,29.205,1.596v26.066l-3.135,3.703c-0.174,0.19-0.293,0.402-0.293,0.402c-0.088-0.034-0.42-0.176-0.508-0.21
	c-5.318-2.065-10.234-4.254-14.806-6.595c-0.122-0.062-0.247-0.123-0.368-0.188c-1.076-0.555-2.133-1.119-3.173-1.693
	c-0.187-0.104-0.369-0.207-0.555-0.311c-0.599-0.334-1.181-0.676-1.768-1.018v-0.002c-0.978-0.564-1.927-1.141-2.874-1.721
	c-0.445-0.275-0.899-0.549-1.338-0.828c-0.036-0.023-0.072-0.047-0.107-0.068c-0.977-0.617-1.946-1.238-2.885-1.877
	c-2.231-1.518-4.359-3.092-6.396-4.721v2.504c1.707,1.324,3.455,2.621,5.291,3.871c1.648,1.121,3.375,2.199,5.137,3.258
	c0.291,0.18,0.574,0.361,0.869,0.537c0.166,0.1,0.336,0.197,0.504,0.295c0.516,0.307,1.049,0.604,1.574,0.902
	c0.076,0.045,0.148,0.09,0.226,0.133v-0.004c0.333,0.189,0.657,0.383,0.994,0.57c0.175,0.098,0.348,0.195,0.523,0.293
	c1.075,0.592,2.171,1.174,3.284,1.746c0.146,0.074,0.295,0.148,0.441,0.223c5.709,2.912,11.942,5.586,18.758,8.061
	c0.064,0.023,7.205,2.507,7.27,2.529c0.047-0.017,6.235-2.494,6.281-2.511c12.59-4.558,23.184-9.789,32.199-15.927
	c4.971-3.385,9.455-7.035,13.502-10.969c0.07-0.068,0.142-0.139,0.212-0.207c2.073-2.029,4.03-4.135,5.869-6.32
	c0.208-0.246,0.415-0.496,0.62-0.744c0.799-0.971,1.581-1.953,2.335-2.957c0.111-0.146,0.224-0.295,0.333-0.443
	c0.707-0.951,1.389-1.922,2.057-2.902c5.635-1.088,11.326-2.299,17.072-3.633c-10.596,20.664-26.431,34.41-42.84,43.907
	c-0.141,0.082-0.282,0.164-10.83,6.808h3.79c10.528-6.637,10.649-6.711,10.771-6.784c1.869-1.136,3.694-2.296,5.457-3.495
	c15.913-10.836,28.057-24.633,36.148-41.025c3.061-0.729,6.133-1.484,9.223-2.281l-0.493-1.914c-2.57,0.662-5.102,1.287-7.614,1.893
	c1.523-3.285,2.896-6.691,4.121-10.215c1.306-0.236,2.611-0.473,3.923-0.721l-0.366-1.943c-0.957,0.18-1.896,0.348-2.847,0.521
	c4.661-14.289,6.923-30.431,6.73-48.185c6.25,2.83,12.761,6.07,16.972,8.965L149.618,55.256z M31.651,63.276l-0.177-20.93
	c1.309-0.033,2.615-0.067,3.956-0.082c1.228,0.013,2.421,0.047,3.624,0.076l0.177,20.95C36.705,63.241,34.178,63.239,31.651,63.276z
	 M66.164,44.38c10.677,1.392,19.743,3.308,27.117,5.259c-0.572,6.367-1.638,13.336-3.172,20.746
	c-2.402-0.654-5.143-1.348-8.202-2.033l-3.526-14.395l-1.688,0.414l-0.424-0.174l-4.934,12.08c-1.669-0.283-3.39-0.557-5.172-0.814
	V44.38z M84.631,80.785l-2.154-9.095l0.234-0.057l-0.278-1.135c2.694,0.619,5.125,1.238,7.274,1.824l-0.047,0.223l0.057,0.018
	c-0.512,2.746-1.141,5.392-1.859,7.948C86.775,80.605,85.697,80.697,84.631,80.785z M87.258,82.548
	c-0.406,1.314-0.832,2.611-1.293,3.865l-0.873-3.684C85.812,82.669,86.531,82.611,87.258,82.548z M80.035,69.965l2.602,10.978
	c-5.421,0.432-10.645,0.791-15.667,1.082l5.866-13.479C75.387,69,77.791,69.479,80.035,69.965z M73.343,66.592l3.812-9.33
	l2.59,10.574C77.812,67.477,74.819,66.887,73.343,66.592z M66.164,67.463c1.604,0.232,3.157,0.479,4.667,0.734l-4.667,10.722V67.463
	z M41.672,42.407c1.186,0.039,2.352,0.09,3.511,0.144c1.239,0.061,2.503,0.13,3.782,0.207c0.467,0.028,0.938,0.055,1.4,0.086
	c0.68,0.044,1.362,0.092,2.045,0.14c3.97,0.295,7.755,0.673,11.375,1.108l0.18,21.067c-0.715-0.096-1.438-0.189-2.17-0.279
	c-6.67-0.82-13.391-1.32-20.123-1.527V42.407z M41.672,65.34c7.34,0.219,14,0.781,19.811,1.494c0.846,0.104,1.677,0.213,2.5,0.322
	l0.041,4.852l0.164-0.002v10.175c-8.031,0.436-15.535,0.701-22.516,0.836V65.34z M41.672,84.992
	c6.982-0.135,14.488-0.4,22.516-0.832v4.26l1.897-4.361c5.433-0.309,11.111-0.697,17.012-1.168l2.372,10.012l1.174-2.805
	c1.025-2.453,1.937-5.039,2.742-7.734c6.338-0.559,12.915-1.211,19.763-1.98l-0.22-1.967c-6.557,0.738-12.877,1.371-18.964,1.914
	c0.654-2.406,1.222-4.896,1.7-7.46c5.876,1.686,9.164,2.986,9.234,3.016l0.736-1.836c-0.072-0.029-3.494-1.389-9.611-3.133
	c1.534-7.395,2.61-14.365,3.201-20.746c0.119,0.033,0.243,0.066,0.361,0.098c0.766,0.215,1.521,0.432,2.274,0.652
	c0.29,0.084,0.59,0.17,0.873,0.254c0.912,0.273,1.811,0.549,2.695,0.83c0.09,0.027,0.19,0.057,0.28,0.086
	c0.81,0.26,1.601,0.527,2.395,0.793c3.714,1.252,7.238,2.582,10.491,3.98c-0.005,0.131-0.015,0.256-0.02,0.385
	c-0.503,11.486-2.216,22.075-5.117,31.636c-0.179,0.588-0.368,1.168-0.556,1.75c-0.093,0.283-0.18,0.574-0.273,0.859
	c-0.526,1.58-1.09,3.125-1.683,4.645c-0.054,0.139-0.104,0.281-0.159,0.42c-0.082,0.207-0.17,0.408-0.253,0.613
	c-0.292,0.723-0.589,1.439-0.896,2.148c-24.278,3.686-45.604,5.422-63.966,5.939V84.992z M41.672,107.261
	c0.999-0.027,1.988-0.043,2.992-0.078c8.848-0.307,17.936-0.893,27.221-1.738l-3.764,12.348c-9.41,1.08-18.229,1.736-26.449,2.055
	V107.261z M72.142,111.382l1.362,5.754c-1.086,0.139-2.168,0.277-3.238,0.406L72.142,111.382z M39.695,85.025v20.287
	c-2.752,0.064-5.432,0.102-8.047,0.115l-0.172-20.328C34.127,85.093,36.867,85.07,39.695,85.025z M31.182,114.183l0.541-0.004
	l-0.058-6.748c2.653-0.014,5.331-0.053,8.03-0.117v12.604c-2.914,0.096-5.752,0.15-8.514,0.164V114.183z M8.682,119.326v-12.451
	c6.66,0.367,13.506,0.561,20.523,0.568v12.643C21.797,120.078,14.956,119.796,8.682,119.326z M40.074,154.109
	c-1.339,0.473-2.818,0.963-4.203,1.422c-3.146-1.129-6.016-2.195-7.85-2.898l3.16-3.732v-26.805
	c2.811-0.014,5.651-0.072,8.514-0.164v26.014l4.048,4.783C42.741,153.111,41.494,153.583,40.074,154.109z M46.323,151.769
	l-0.015-0.033c-0.018,0.006-0.238,0.094-0.611,0.238l-4.025-4.754v-25.361c1.004-0.039,1.996-0.061,3.006-0.109
	c7.441-0.354,15.052-0.98,22.805-1.859l-7.924,26.004C55.471,147.953,51.021,149.923,46.323,151.769z M73.239,137.894
	c-3.491,2.377-7.229,4.615-11.228,6.734l7.611-24.979c1.443-0.172,2.895-0.357,4.348-0.547l2.783,11.756l4.814,0.723
	C78.955,133.783,76.188,135.888,73.239,137.894z M95.983,116.226c-0.153,0.209-0.3,0.424-0.456,0.633
	c-0.757,1.014-1.543,2.006-2.347,2.988c-0.213,0.262-0.43,0.52-0.646,0.777c-0.812,0.965-1.638,1.922-2.495,2.857
	c-0.028,0.031-0.055,0.061-0.083,0.092c-0.972,1.057-1.976,2.09-3.009,3.107c-0.072,0.072-0.146,0.141-0.217,0.211
	c-1.035,1.014-2.097,2.008-3.193,2.984l-5.165-0.775l-2.431-10.262c6.746-0.916,13.594-2.02,20.535-3.316
	C96.311,115.757,96.152,115.996,95.983,116.226z M100.396,109.57c-0.611,1.027-1.25,2.033-1.902,3.029
	c-0.131,0.201-0.268,0.4-0.4,0.602c-7.869,1.5-15.402,2.711-22.617,3.678l-2.727-11.514c10.402-0.965,21.059-2.266,31.926-3.895
	c-0.555,1.191-1.137,2.355-1.732,3.508c-0.172,0.332-0.346,0.66-0.521,0.988c-0.537,1.008-1.091,2.002-1.663,2.98
	C100.638,109.154,100.52,109.365,100.396,109.57z M118.162,107.648c-0.222,0.477-0.459,0.936-0.686,1.406
	c-5.707,1.346-11.262,2.545-16.666,3.609c0.398-0.629,0.791-1.262,1.175-1.9c0.097-0.16,0.194-0.32,0.289-0.482
	c0.655-1.107,1.282-2.238,1.892-3.383c0.165-0.307,0.327-0.615,0.488-0.926c0.637-1.227,1.259-2.467,1.847-3.734
	c0.171-0.369,0.333-0.746,0.499-1.119c4.904-0.754,9.85-1.576,14.834-2.463C120.726,101.746,119.508,104.748,118.162,107.648z"/>
<g>
	<g>
		<path fill="#FFFFFF" d="M130.422,33.497c20.229,0.216,35.255,3.702,44.3,6.588c6.443,2.057,10.729,4.052,12.896,5.168
			c-0.026,13.493-2.383,25.382-7.014,35.364c-4.837,10.427-12.36,19.166-22.364,25.974c-7.532,5.129-16.644,9.331-27.866,12.845
			c-11.411-3.576-20.673-7.885-28.29-13.155c-10.139-7.018-17.686-16.05-22.432-26.846l-0.017-0.04l-0.018-0.038l-0.003-0.009
			c-4.253-9.704-6.417-21.166-6.442-34.092c2.178-1.122,6.47-3.119,12.897-5.17c9.045-2.887,24.069-6.373,44.286-6.588H130.422
			 M130.449,28.497h-0.121c-20.853,0.22-36.405,3.833-45.78,6.825c-10.224,3.264-15.446,6.456-15.663,6.589l-0.687,0.425
			l-0.013,0.808c-0.221,14.502,2.089,27.373,6.867,38.254l0.022,0.049C80.2,93.104,88.33,102.84,99.238,110.391
			c8.252,5.711,18.257,10.324,30.583,14.107l0.243,0.074l0.724-0.031l0.18-0.057c12.09-3.707,21.932-8.209,30.086-13.762
			c10.762-7.324,18.865-16.748,24.086-28.002c5.182-11.17,7.692-24.484,7.464-39.578l-0.011-0.808l-0.688-0.425
			c-0.217-0.133-5.439-3.325-15.663-6.589C166.868,32.33,151.315,28.716,130.449,28.497L130.449,28.497z"/>
	</g>
	<g>
		<path fill="#FFFFFF" d="M135.483,41.311c3.938,0.163,8.353,0.486,12.169,0.892v18.249v14.407l5.751-13.209l1.546-3.553
			c0.905,0.179,2.083,0.41,3.011,0.584l1.897,8.011l2.494,10.534l3.283-10.316c0.649-2.041,1.203-4.216,1.645-6.466l0.26-1.459
			c0.924-4.397,1.599-8.569,2.012-12.441c0.967,0.279,1.915,0.566,2.834,0.859c2.637,0.843,5.129,1.754,7.43,2.716
			c-0.507,10.349-2.584,19.517-6.181,27.266c-3.13,6.749-7.344,12.474-12.868,17.479l-2.045-0.308l-2.039-8.607l-2.557-10.792
			l-3.232,10.609l-6.009,19.721c-2.358,1.172-4.902,2.301-7.583,3.365l-1.817-2.147V41.311 M132.483,38.21v69.593l3.908,4.617
			l0.837-0.32c3.451-1.328,6.705-2.764,9.672-4.27l0.479-0.244l6.383-20.947l2.507,10.582l5.439,0.816l0.44-0.389
			c6.138-5.41,10.784-11.625,14.206-19.002c3.901-8.406,6.092-18.369,6.508-29.607l0.032-0.859l-0.788-0.344
			c-2.687-1.174-5.65-2.281-8.81-3.291c-1.586-0.506-3.252-0.994-4.951-1.451l-1.461-0.393l-0.125,1.506
			c-0.372,4.41-1.122,9.293-2.231,14.51l-0.241,1.135l0.048,0.014c-0.42,2.139-0.94,4.189-1.56,6.135l-2.353-9.935l-0.828-0.138
			c-1.229-0.205-5.391-1.038-5.433-1.047l-0.999-0.199l-2.512,5.77V39.526l-1.117-0.132c-4.767-0.56-10.803-0.999-15.751-1.146
			L132.483,38.21L132.483,38.21z"/>
	</g>
	<g>
		<path fill="#FFFFFF" d="M125.308,41.31v11.272c-13.235,0.572-23.364,2.692-29.621,4.408l-2.774,0.761l0.644,2.804
			c0.349,1.518,0.83,3.101,1.428,4.705l0.591,1.581l1.658,0.316c7.481,1.425,18.489,1.638,24.385,1.638
			c1.472,0,2.727-0.012,3.688-0.027v38.545l-1.437,1.698c-6.744-2.649-12.452-5.616-17.416-9.051
			c-3.303-2.285-6.309-4.809-8.938-7.505l-0.823-2.99c4.716,0.732,9.571,1.31,14.469,1.719l3.25,0.272v-3.262v-5.955v-2.778
			l-2.771-0.213c-4.951-0.38-10.961-1.067-16.491-1.889c-5.7-0.844-7.888-1.356-8.727-1.623c-3.146-7.382-4.977-15.992-5.447-25.62
			c2.54-1.062,5.298-2.057,8.221-2.963C96.686,44.829,108.939,41.97,125.308,41.31 M128.308,38.211l-1.301,0.037
			c-17.599,0.525-30.758,3.574-38.699,6.042c-3.459,1.073-6.698,2.268-9.624,3.546l-0.788,0.344l0.033,0.859
			c0.393,10.664,2.385,20.188,5.923,28.311l0.077,0.176c0.304,0.691,0.566,1.289,10.782,2.803
			c5.619,0.834,11.758,1.533,16.701,1.912v5.955c-5.769-0.482-11.448-1.197-16.9-2.123l-1.956-0.332l2.271,8.248l0.221,0.23
			c2.84,2.959,6.103,5.721,9.7,8.209c5.444,3.768,11.724,6.982,19.2,9.83l0.836,0.318l3.523-4.164V65.698l-1.301,0.037
			c-0.021,0-2.176,0.061-5.388,0.061c-5.872,0-16.611-0.211-23.824-1.585c-0.554-1.482-0.994-2.931-1.315-4.327
			c6.624-1.816,17.024-3.925,30.604-4.366l1.223-0.04V38.211L128.308,38.211z"/>
	</g>
</g>
</svg>
